# xmcd CD database file
#
# Track frame offsets:
#	150
#	7387
#	10357
#	14045
#	21742
#	30822
#	38050
#	41832
#	43992
#	48100
#
# Disc length: 778 seconds
#
# Revision: 0
# Processed by: cddbd v1.5.2PL0 Copyright (c) Steve Scherf et al.
# Submitted via: CDex 1.51
#
DISCID=8203080a
DTITLE=Howard Morgen - Fingerstyle Jazz Images for Christmas
DYEAR=1900
DGENRE=Jazz
TTITLE0=O Tannenbaum
TTITLE1=Joy to the World
TTITLE2=What Child is This?
TTITLE3=O Little Town of Bethlehem
TTITLE4=Jingle Bells
TTITLE5=Hark the Herald Angels Sing
TTITLE6=Silent Night
TTITLE7=God Rest Ye Merry Gentlemen
TTITLE8=Deck the Halls
TTITLE9=It Came Upon A Midnight Clear
EXTD=
EXTT0=
EXTT1=
EXTT2=
EXTT3=
EXTT4=
EXTT5=
EXTT6=
EXTT7=
EXTT8=
EXTT9=
PLAYORDER=
